{
	"patcher" : 	{
		"fileversion" : 1,
		"rect" : [ 470.0, 44.0, 649.0, 429.0 ],
		"bglocked" : 0,
		"defrect" : [ 470.0, 44.0, 649.0, 429.0 ],
		"openrect" : [ 0.0, 0.0, 0.0, 0.0 ],
		"openinpresentation" : 0,
		"default_fontsize" : 12.0,
		"default_fontface" : 0,
		"default_fontname" : "Verdana",
		"gridonopen" : 0,
		"gridsize" : [ 15.0, 15.0 ],
		"gridsnaponopen" : 0,
		"toolbarvisible" : 1,
		"boxanimatetime" : 200,
		"imprint" : 0,
		"enablehscroll" : 1,
		"enablevscroll" : 1,
		"devicewidth" : 0.0,
		"boxes" : [ 			{
				"box" : 				{
					"maxclass" : "comment",
					"text" : "Done",
					"patching_rect" : [ 44.5, 398.5, 42.0, 21.0 ],
					"id" : "obj-167",
					"fontname" : "Verdana",
					"numinlets" : 1,
					"numoutlets" : 0,
					"fontsize" : 12.0
				}

			}
, 			{
				"box" : 				{
					"maxclass" : "outlet",
					"patching_rect" : [ 17.0, 395.0, 25.0, 25.0 ],
					"id" : "obj-21",
					"numinlets" : 1,
					"numoutlets" : 0,
					"comment" : "Done"
				}

			}
, 			{
				"box" : 				{
					"maxclass" : "newobj",
					"text" : "prepend size",
					"patching_rect" : [ 31.0, 312.0, 87.0, 21.0 ],
					"id" : "obj-1",
					"fontname" : "Verdana",
					"numinlets" : 1,
					"numoutlets" : 1,
					"fontsize" : 12.0,
					"outlettype" : [ "" ]
				}

			}
, 			{
				"box" : 				{
					"maxclass" : "newobj",
					"text" : "int",
					"patching_rect" : [ 31.0, 266.0, 32.5, 21.0 ],
					"id" : "obj-2",
					"fontname" : "Verdana",
					"numinlets" : 2,
					"numoutlets" : 1,
					"fontsize" : 12.0,
					"outlettype" : [ "int" ]
				}

			}
, 			{
				"box" : 				{
					"maxclass" : "newobj",
					"text" : "+ 1",
					"patching_rect" : [ 31.0, 289.0, 32.5, 21.0 ],
					"id" : "obj-3",
					"fontname" : "Verdana",
					"numinlets" : 2,
					"numoutlets" : 1,
					"fontsize" : 12.0,
					"outlettype" : [ "int" ]
				}

			}
, 			{
				"box" : 				{
					"maxclass" : "newobj",
					"text" : "counter",
					"patching_rect" : [ 114.0, 232.0, 73.0, 21.0 ],
					"id" : "obj-4",
					"fontname" : "Verdana",
					"numinlets" : 5,
					"numoutlets" : 4,
					"fontsize" : 12.0,
					"outlettype" : [ "int", "", "", "int" ]
				}

			}
, 			{
				"box" : 				{
					"maxclass" : "comment",
					"text" : "Minor, 1 2 b3 4 5 6 7",
					"patching_rect" : [ 82.0, 63.0, 137.0, 21.0 ],
					"id" : "obj-5",
					"fontname" : "Verdana",
					"numinlets" : 1,
					"numoutlets" : 0,
					"fontsize" : 12.0
				}

			}
, 			{
				"box" : 				{
					"maxclass" : "comment",
					"text" : "Specification String in scale degrees",
					"patching_rect" : [ 59.0, 24.0, 229.0, 21.0 ],
					"id" : "obj-6",
					"fontname" : "Verdana",
					"numinlets" : 1,
					"numoutlets" : 0,
					"fontsize" : 12.0
				}

			}
, 			{
				"box" : 				{
					"maxclass" : "newobj",
					"text" : "prepend refer",
					"patching_rect" : [ 312.0, 52.0, 93.0, 21.0 ],
					"id" : "obj-7",
					"fontname" : "Verdana",
					"numinlets" : 1,
					"numoutlets" : 1,
					"fontsize" : 12.0,
					"outlettype" : [ "" ]
				}

			}
, 			{
				"box" : 				{
					"maxclass" : "inlet",
					"patching_rect" : [ 312.0, 24.0, 25.0, 25.0 ],
					"id" : "obj-8",
					"numinlets" : 0,
					"numoutlets" : 1,
					"outlettype" : [ "" ],
					"comment" : "Destination Table Name"
				}

			}
, 			{
				"box" : 				{
					"maxclass" : "inlet",
					"patching_rect" : [ 17.0, 24.0, 25.0, 25.0 ],
					"id" : "obj-9",
					"numinlets" : 0,
					"numoutlets" : 1,
					"outlettype" : [ "" ],
					"comment" : "Specification String"
				}

			}
, 			{
				"box" : 				{
					"maxclass" : "comment",
					"text" : "<- Converts from scale degrees to semitone numbers",
					"patching_rect" : [ 301.0, 158.0, 335.0, 21.0 ],
					"id" : "obj-10",
					"fontname" : "Verdana",
					"numinlets" : 1,
					"numoutlets" : 0,
					"fontsize" : 12.0
				}

			}
, 			{
				"box" : 				{
					"maxclass" : "comment",
					"text" : "<- this is the ScaleDegree-style destination table",
					"patching_rect" : [ 209.0, 351.0, 308.0, 21.0 ],
					"id" : "obj-11",
					"fontname" : "Verdana",
					"numinlets" : 1,
					"numoutlets" : 0,
					"fontsize" : 12.0
				}

			}
, 			{
				"box" : 				{
					"maxclass" : "newobj",
					"text" : "t b b l b",
					"patching_rect" : [ 17.0, 100.0, 59.5, 21.0 ],
					"id" : "obj-12",
					"fontname" : "Verdana",
					"numinlets" : 1,
					"numoutlets" : 4,
					"fontsize" : 12.0,
					"outlettype" : [ "bang", "bang", "", "bang" ]
				}

			}
, 			{
				"box" : 				{
					"maxclass" : "newobj",
					"text" : "iter",
					"patching_rect" : [ 175.0, 131.0, 31.0, 21.0 ],
					"id" : "obj-13",
					"fontname" : "Verdana",
					"numinlets" : 1,
					"numoutlets" : 1,
					"fontsize" : 12.0,
					"outlettype" : [ "" ]
				}

			}
, 			{
				"box" : 				{
					"maxclass" : "newobj",
					"text" : "t b i",
					"patching_rect" : [ 175.0, 183.0, 34.0, 21.0 ],
					"id" : "obj-14",
					"fontname" : "Verdana",
					"numinlets" : 1,
					"numoutlets" : 2,
					"fontsize" : 12.0,
					"outlettype" : [ "bang", "int" ]
				}

			}
, 			{
				"box" : 				{
					"maxclass" : "newobj",
					"text" : "coll degree2Semi 1",
					"patching_rect" : [ 175.0, 156.0, 126.0, 21.0 ],
					"id" : "obj-15",
					"fontname" : "Verdana",
					"numinlets" : 1,
					"numoutlets" : 4,
					"fontsize" : 12.0,
					"outlettype" : [ "", "", "", "" ],
					"coll_data" : 					{
						"count" : 12,
						"data" : [ 							{
								"key" : 1,
								"value" : [ 0 ]
							}
, 							{
								"key" : "b2",
								"value" : [ 1 ]
							}
, 							{
								"key" : 2,
								"value" : [ 2 ]
							}
, 							{
								"key" : "b3",
								"value" : [ 3 ]
							}
, 							{
								"key" : 3,
								"value" : [ 4 ]
							}
, 							{
								"key" : 4,
								"value" : [ 5 ]
							}
, 							{
								"key" : "b5",
								"value" : [ 6 ]
							}
, 							{
								"key" : 5,
								"value" : [ 7 ]
							}
, 							{
								"key" : "b6",
								"value" : [ 8 ]
							}
, 							{
								"key" : 6,
								"value" : [ 9 ]
							}
, 							{
								"key" : "b7",
								"value" : [ 10 ]
							}
, 							{
								"key" : 7,
								"value" : [ 11 ]
							}
 ]
					}
,
					"saved_object_attributes" : 					{
						"embed" : 1
					}

				}

			}
, 			{
				"box" : 				{
					"maxclass" : "message",
					"text" : "0",
					"patching_rect" : [ 58.0, 156.0, 32.5, 19.0 ],
					"id" : "obj-16",
					"fontname" : "Verdana",
					"numinlets" : 2,
					"numoutlets" : 1,
					"fontsize" : 12.0,
					"outlettype" : [ "" ]
				}

			}
, 			{
				"box" : 				{
					"maxclass" : "newobj",
					"text" : "table tempNotez2",
					"patching_rect" : [ 31.0, 351.0, 178.0, 21.0 ],
					"id" : "obj-17",
					"fontname" : "Verdana",
					"numinlets" : 2,
					"numoutlets" : 2,
					"fontsize" : 12.0,
					"outlettype" : [ "int", "bang" ],
					"size" : 12,
					"table_data" : [ 0, 0, 1, 1, 1, 4, 5, 5, 7, 8, 8, 8, 11 ],
					"showeditor" : 0,
					"editor_rect" : [ 691.0, 148.0, 210.0, 167.0 ],
					"saved_object_attributes" : 					{
						"showeditor" : 0,
						"size" : 12,
						"range" : 12,
						"name" : "tempNotez2",
						"signed" : 0,
						"notename" : 1,
						"embed" : 1
					}

				}

			}
, 			{
				"box" : 				{
					"maxclass" : "comment",
					"text" : "Make ScaleDegree table",
					"patching_rect" : [ 85.0, 91.0, 156.0, 21.0 ],
					"id" : "obj-18",
					"fontname" : "Verdana",
					"numinlets" : 1,
					"numoutlets" : 0,
					"fontsize" : 12.0
				}

			}
, 			{
				"box" : 				{
					"maxclass" : "comment",
					"text" : "Destination Table Name",
					"patching_rect" : [ 340.0, 24.0, 153.0, 21.0 ],
					"id" : "obj-19",
					"fontname" : "Verdana",
					"numinlets" : 1,
					"numoutlets" : 0,
					"fontsize" : 12.0
				}

			}
, 			{
				"box" : 				{
					"maxclass" : "comment",
					"text" : "e.g. Major, 1 2 3 4 5 6 7",
					"patching_rect" : [ 61.0, 43.0, 158.0, 21.0 ],
					"id" : "obj-20",
					"fontname" : "Verdana",
					"numinlets" : 1,
					"numoutlets" : 0,
					"fontsize" : 12.0
				}

			}
 ],
		"lines" : [ 			{
				"patchline" : 				{
					"source" : [ "obj-8", 0 ],
					"destination" : [ "obj-7", 0 ],
					"hidden" : 0,
					"midpoints" : [  ]
				}

			}
, 			{
				"patchline" : 				{
					"source" : [ "obj-14", 1 ],
					"destination" : [ "obj-17", 1 ],
					"hidden" : 0,
					"midpoints" : [  ]
				}

			}
, 			{
				"patchline" : 				{
					"source" : [ "obj-16", 0 ],
					"destination" : [ "obj-4", 2 ],
					"hidden" : 0,
					"midpoints" : [ 67.5, 191.0, 150.5, 191.0 ]
				}

			}
, 			{
				"patchline" : 				{
					"source" : [ "obj-14", 0 ],
					"destination" : [ "obj-4", 0 ],
					"hidden" : 0,
					"midpoints" : [  ]
				}

			}
, 			{
				"patchline" : 				{
					"source" : [ "obj-15", 0 ],
					"destination" : [ "obj-14", 0 ],
					"hidden" : 0,
					"midpoints" : [  ]
				}

			}
, 			{
				"patchline" : 				{
					"source" : [ "obj-13", 0 ],
					"destination" : [ "obj-15", 0 ],
					"hidden" : 0,
					"midpoints" : [  ]
				}

			}
, 			{
				"patchline" : 				{
					"source" : [ "obj-4", 0 ],
					"destination" : [ "obj-2", 1 ],
					"hidden" : 0,
					"midpoints" : [ 123.5, 262.0, 54.0, 262.0 ]
				}

			}
, 			{
				"patchline" : 				{
					"source" : [ "obj-7", 0 ],
					"destination" : [ "obj-17", 0 ],
					"hidden" : 0,
					"color" : [ 0.156863, 0.8, 0.54902, 1.0 ],
					"midpoints" : [ 321.5, 337.0, 40.5, 337.0 ]
				}

			}
, 			{
				"patchline" : 				{
					"source" : [ "obj-1", 0 ],
					"destination" : [ "obj-17", 0 ],
					"hidden" : 0,
					"color" : [ 0.156863, 0.8, 0.54902, 1.0 ],
					"midpoints" : [  ]
				}

			}
, 			{
				"patchline" : 				{
					"source" : [ "obj-4", 0 ],
					"destination" : [ "obj-17", 0 ],
					"hidden" : 0,
					"color" : [ 0.156863, 0.8, 0.54902, 1.0 ],
					"midpoints" : [ 123.5, 337.0, 40.5, 337.0 ]
				}

			}
, 			{
				"patchline" : 				{
					"source" : [ "obj-3", 0 ],
					"destination" : [ "obj-1", 0 ],
					"hidden" : 0,
					"midpoints" : [  ]
				}

			}
, 			{
				"patchline" : 				{
					"source" : [ "obj-2", 0 ],
					"destination" : [ "obj-3", 0 ],
					"hidden" : 0,
					"midpoints" : [  ]
				}

			}
, 			{
				"patchline" : 				{
					"source" : [ "obj-9", 0 ],
					"destination" : [ "obj-12", 0 ],
					"hidden" : 0,
					"midpoints" : [  ]
				}

			}
, 			{
				"patchline" : 				{
					"source" : [ "obj-12", 3 ],
					"destination" : [ "obj-16", 0 ],
					"hidden" : 0,
					"midpoints" : [  ]
				}

			}
, 			{
				"patchline" : 				{
					"source" : [ "obj-12", 2 ],
					"destination" : [ "obj-13", 0 ],
					"hidden" : 0,
					"midpoints" : [ 53.5, 128.5, 184.5, 128.5 ]
				}

			}
, 			{
				"patchline" : 				{
					"source" : [ "obj-12", 1 ],
					"destination" : [ "obj-2", 0 ],
					"hidden" : 0,
					"midpoints" : [  ]
				}

			}
, 			{
				"patchline" : 				{
					"source" : [ "obj-12", 0 ],
					"destination" : [ "obj-21", 0 ],
					"hidden" : 0,
					"midpoints" : [  ]
				}

			}
 ]
	}

}
